<mxfile host="app.diagrams.net" modified="2021-04-27T16:18:24.488Z" agent="5.0 (Macintosh; Intel Mac OS X 10_15_7) AppleWebKit/537.36 (KHTML, like Gecko) Chrome/86.0.4240.193 Safari/537.36" etag="vxCNeJWVn6qQfXzDx2vi" version="14.6.6" type="github">
  <diagram id="IyXbGtLOxJqc0Fvp0fRq" name="Page-1">
    <mxGraphModel dx="1773" dy="536" grid="1" gridSize="10" guides="1" tooltips="1" connect="1" arrows="1" fold="1" page="1" pageScale="1" pageWidth="827" pageHeight="1169" math="0" shadow="0">
      <root>
        <mxCell id="0" />
        <mxCell id="1" parent="0" />
        <mxCell id="7pgBq9qDwBBXRbjPiI7Y-23" value="IndexHead" style="rounded=0;whiteSpace=wrap;html=1;fillColor=#d5e8d4;strokeColor=#82b366;" parent="1" vertex="1">
          <mxGeometry x="-50" y="460" width="120" height="40" as="geometry" />
        </mxCell>
        <mxCell id="7pgBq9qDwBBXRbjPiI7Y-28" value="" style="shape=table;html=1;whiteSpace=wrap;startSize=0;container=1;collapsible=0;childLayout=tableLayout;fillColor=#ffe6cc;strokeColor=#d79b00;" parent="1" vertex="1">
          <mxGeometry x="70" y="460" width="360" height="40" as="geometry" />
        </mxCell>
        <mxCell id="7pgBq9qDwBBXRbjPiI7Y-29" value="" style="shape=partialRectangle;html=1;whiteSpace=wrap;collapsible=0;dropTarget=0;pointerEvents=0;fillColor=none;top=0;left=0;bottom=0;right=0;points=[[0,0.5],[1,0.5]];portConstraint=eastwest;" parent="7pgBq9qDwBBXRbjPiI7Y-28" vertex="1">
          <mxGeometry width="360" height="40" as="geometry" />
        </mxCell>
        <mxCell id="7pgBq9qDwBBXRbjPiI7Y-62" value="0" style="shape=partialRectangle;html=1;whiteSpace=wrap;connectable=0;fillColor=none;top=0;left=0;bottom=0;right=0;overflow=hidden;" parent="7pgBq9qDwBBXRbjPiI7Y-29" vertex="1">
          <mxGeometry width="60" height="40" as="geometry" />
        </mxCell>
        <mxCell id="7pgBq9qDwBBXRbjPiI7Y-59" value="1&lt;br&gt;value=3" style="shape=partialRectangle;html=1;whiteSpace=wrap;connectable=0;fillColor=none;top=0;left=0;bottom=0;right=0;overflow=hidden;" parent="7pgBq9qDwBBXRbjPiI7Y-29" vertex="1">
          <mxGeometry x="60" width="60" height="40" as="geometry" />
        </mxCell>
        <mxCell id="7pgBq9qDwBBXRbjPiI7Y-53" value="..." style="shape=partialRectangle;html=1;whiteSpace=wrap;connectable=0;fillColor=none;top=0;left=0;bottom=0;right=0;overflow=hidden;" parent="7pgBq9qDwBBXRbjPiI7Y-29" vertex="1">
          <mxGeometry x="120" width="60" height="40" as="geometry" />
        </mxCell>
        <mxCell id="7pgBq9qDwBBXRbjPiI7Y-50" value="4&lt;br&gt;value=2" style="shape=partialRectangle;html=1;whiteSpace=wrap;connectable=0;fillColor=none;top=0;left=0;bottom=0;right=0;overflow=hidden;" parent="7pgBq9qDwBBXRbjPiI7Y-29" vertex="1">
          <mxGeometry x="180" width="60" height="40" as="geometry" />
        </mxCell>
        <mxCell id="7pgBq9qDwBBXRbjPiI7Y-47" value="..." style="shape=partialRectangle;html=1;whiteSpace=wrap;connectable=0;fillColor=none;top=0;left=0;bottom=0;right=0;overflow=hidden;" parent="7pgBq9qDwBBXRbjPiI7Y-29" vertex="1">
          <mxGeometry x="240" width="60" height="40" as="geometry" />
        </mxCell>
        <mxCell id="7pgBq9qDwBBXRbjPiI7Y-31" value="9" style="shape=partialRectangle;html=1;whiteSpace=wrap;connectable=0;fillColor=none;top=0;left=0;bottom=0;right=0;overflow=hidden;" parent="7pgBq9qDwBBXRbjPiI7Y-29" vertex="1">
          <mxGeometry x="300" width="60" height="40" as="geometry" />
        </mxCell>
        <mxCell id="7pgBq9qDwBBXRbjPiI7Y-65" value="11&lt;br&gt;value=0" style="rounded=0;whiteSpace=wrap;html=1;fillColor=#dae8fc;strokeColor=#6c8ebf;" parent="1" vertex="1">
          <mxGeometry x="430" y="460" width="60" height="40" as="geometry" />
        </mxCell>
        <mxCell id="7pgBq9qDwBBXRbjPiI7Y-83" style="edgeStyle=orthogonalEdgeStyle;rounded=0;orthogonalLoop=1;jettySize=auto;html=1;exitX=0.5;exitY=0;exitDx=0;exitDy=0;entryX=0.242;entryY=-0.025;entryDx=0;entryDy=0;entryPerimeter=0;startArrow=classic;startFill=1;endArrow=none;endFill=0;" parent="1" source="7pgBq9qDwBBXRbjPiI7Y-67" target="7pgBq9qDwBBXRbjPiI7Y-29" edge="1">
          <mxGeometry relative="1" as="geometry">
            <Array as="points">
              <mxPoint x="580" y="410" />
              <mxPoint x="157" y="410" />
            </Array>
          </mxGeometry>
        </mxCell>
        <mxCell id="7pgBq9qDwBBXRbjPiI7Y-84" style="edgeStyle=orthogonalEdgeStyle;rounded=0;orthogonalLoop=1;jettySize=auto;html=1;exitX=0.5;exitY=1;exitDx=0;exitDy=0;entryX=0.5;entryY=1;entryDx=0;entryDy=0;startArrow=none;startFill=0;endArrow=classic;endFill=1;" parent="1" source="7pgBq9qDwBBXRbjPiI7Y-67" target="7pgBq9qDwBBXRbjPiI7Y-65" edge="1">
          <mxGeometry relative="1" as="geometry" />
        </mxCell>
        <mxCell id="7pgBq9qDwBBXRbjPiI7Y-67" value="21&lt;br&gt;value=1" style="rounded=0;whiteSpace=wrap;html=1;fillColor=#dae8fc;strokeColor=#6c8ebf;" parent="1" vertex="1">
          <mxGeometry x="550" y="460" width="60" height="40" as="geometry" />
        </mxCell>
        <mxCell id="7pgBq9qDwBBXRbjPiI7Y-85" style="edgeStyle=orthogonalEdgeStyle;rounded=0;orthogonalLoop=1;jettySize=auto;html=1;exitX=0.5;exitY=0;exitDx=0;exitDy=0;entryX=0.583;entryY=-0.025;entryDx=0;entryDy=0;entryPerimeter=0;startArrow=classic;startFill=1;endArrow=none;endFill=0;" parent="1" source="7pgBq9qDwBBXRbjPiI7Y-69" target="7pgBq9qDwBBXRbjPiI7Y-29" edge="1">
          <mxGeometry relative="1" as="geometry" />
        </mxCell>
        <mxCell id="7pgBq9qDwBBXRbjPiI7Y-69" value="34&lt;br&gt;value=0" style="rounded=0;whiteSpace=wrap;html=1;fillColor=#dae8fc;strokeColor=#6c8ebf;" parent="1" vertex="1">
          <mxGeometry x="490" y="460" width="60" height="40" as="geometry" />
        </mxCell>
        <mxCell id="7pgBq9qDwBBXRbjPiI7Y-80" value="index=1" style="text;html=1;strokeColor=none;fillColor=none;align=center;verticalAlign=middle;whiteSpace=wrap;rounded=0;" parent="1" vertex="1">
          <mxGeometry x="440" y="540" width="40" height="20" as="geometry" />
        </mxCell>
        <mxCell id="7pgBq9qDwBBXRbjPiI7Y-81" value="index=2" style="text;html=1;strokeColor=none;fillColor=none;align=center;verticalAlign=middle;whiteSpace=wrap;rounded=0;" parent="1" vertex="1">
          <mxGeometry x="500" y="540" width="40" height="20" as="geometry" />
        </mxCell>
        <mxCell id="7pgBq9qDwBBXRbjPiI7Y-82" value="index=3" style="text;html=1;strokeColor=none;fillColor=none;align=center;verticalAlign=middle;whiteSpace=wrap;rounded=0;" parent="1" vertex="1">
          <mxGeometry x="560" y="540" width="40" height="20" as="geometry" />
        </mxCell>
        <mxCell id="IMbzZPyRSBKScdet-RZA-1" value="IndexHead" style="rounded=0;whiteSpace=wrap;html=1;fillColor=#d5e8d4;strokeColor=#82b366;" vertex="1" parent="1">
          <mxGeometry x="-50" y="70" width="120" height="40" as="geometry" />
        </mxCell>
        <mxCell id="IMbzZPyRSBKScdet-RZA-2" value="" style="shape=table;html=1;whiteSpace=wrap;startSize=0;container=1;collapsible=0;childLayout=tableLayout;fillColor=#ffe6cc;strokeColor=#d79b00;" vertex="1" parent="1">
          <mxGeometry x="70" y="70" width="360" height="40" as="geometry" />
        </mxCell>
        <mxCell id="IMbzZPyRSBKScdet-RZA-3" value="" style="shape=partialRectangle;html=1;whiteSpace=wrap;collapsible=0;dropTarget=0;pointerEvents=0;fillColor=none;top=0;left=0;bottom=0;right=0;points=[[0,0.5],[1,0.5]];portConstraint=eastwest;" vertex="1" parent="IMbzZPyRSBKScdet-RZA-2">
          <mxGeometry width="360" height="40" as="geometry" />
        </mxCell>
        <mxCell id="IMbzZPyRSBKScdet-RZA-4" value="0" style="shape=partialRectangle;html=1;whiteSpace=wrap;connectable=0;fillColor=none;top=0;left=0;bottom=0;right=0;overflow=hidden;" vertex="1" parent="IMbzZPyRSBKScdet-RZA-3">
          <mxGeometry width="60" height="40" as="geometry" />
        </mxCell>
        <mxCell id="IMbzZPyRSBKScdet-RZA-5" value="1&lt;br&gt;value=1" style="shape=partialRectangle;html=1;whiteSpace=wrap;connectable=0;fillColor=none;top=0;left=0;bottom=0;right=0;overflow=hidden;" vertex="1" parent="IMbzZPyRSBKScdet-RZA-3">
          <mxGeometry x="60" width="60" height="40" as="geometry" />
        </mxCell>
        <mxCell id="IMbzZPyRSBKScdet-RZA-6" value="..." style="shape=partialRectangle;html=1;whiteSpace=wrap;connectable=0;fillColor=none;top=0;left=0;bottom=0;right=0;overflow=hidden;" vertex="1" parent="IMbzZPyRSBKScdet-RZA-3">
          <mxGeometry x="120" width="60" height="40" as="geometry" />
        </mxCell>
        <mxCell id="IMbzZPyRSBKScdet-RZA-7" value="4" style="shape=partialRectangle;html=1;whiteSpace=wrap;connectable=0;fillColor=none;top=0;left=0;bottom=0;right=0;overflow=hidden;" vertex="1" parent="IMbzZPyRSBKScdet-RZA-3">
          <mxGeometry x="180" width="60" height="40" as="geometry" />
        </mxCell>
        <mxCell id="IMbzZPyRSBKScdet-RZA-8" value="..." style="shape=partialRectangle;html=1;whiteSpace=wrap;connectable=0;fillColor=none;top=0;left=0;bottom=0;right=0;overflow=hidden;" vertex="1" parent="IMbzZPyRSBKScdet-RZA-3">
          <mxGeometry x="240" width="60" height="40" as="geometry" />
        </mxCell>
        <mxCell id="IMbzZPyRSBKScdet-RZA-9" value="9" style="shape=partialRectangle;html=1;whiteSpace=wrap;connectable=0;fillColor=none;top=0;left=0;bottom=0;right=0;overflow=hidden;" vertex="1" parent="IMbzZPyRSBKScdet-RZA-3">
          <mxGeometry x="300" width="60" height="40" as="geometry" />
        </mxCell>
        <mxCell id="IMbzZPyRSBKScdet-RZA-19" style="edgeStyle=orthogonalEdgeStyle;rounded=0;orthogonalLoop=1;jettySize=auto;html=1;exitX=0.5;exitY=0;exitDx=0;exitDy=0;entryX=0.244;entryY=0;entryDx=0;entryDy=0;entryPerimeter=0;startArrow=classic;startFill=1;endArrow=none;endFill=0;" edge="1" parent="1" source="IMbzZPyRSBKScdet-RZA-10" target="IMbzZPyRSBKScdet-RZA-3">
          <mxGeometry relative="1" as="geometry" />
        </mxCell>
        <mxCell id="IMbzZPyRSBKScdet-RZA-10" value="11&lt;br&gt;value=0" style="rounded=0;whiteSpace=wrap;html=1;fillColor=#dae8fc;strokeColor=#6c8ebf;" vertex="1" parent="1">
          <mxGeometry x="430" y="70" width="60" height="40" as="geometry" />
        </mxCell>
        <mxCell id="IMbzZPyRSBKScdet-RZA-13" value="" style="rounded=0;whiteSpace=wrap;html=1;fillColor=#dae8fc;strokeColor=#6c8ebf;" vertex="1" parent="1">
          <mxGeometry x="550" y="70" width="60" height="40" as="geometry" />
        </mxCell>
        <mxCell id="IMbzZPyRSBKScdet-RZA-15" value="" style="rounded=0;whiteSpace=wrap;html=1;fillColor=#dae8fc;strokeColor=#6c8ebf;" vertex="1" parent="1">
          <mxGeometry x="490" y="70" width="60" height="40" as="geometry" />
        </mxCell>
        <mxCell id="IMbzZPyRSBKScdet-RZA-16" value="index=1" style="text;html=1;strokeColor=none;fillColor=none;align=center;verticalAlign=middle;whiteSpace=wrap;rounded=0;" vertex="1" parent="1">
          <mxGeometry x="440" y="150" width="40" height="20" as="geometry" />
        </mxCell>
        <mxCell id="IMbzZPyRSBKScdet-RZA-20" value="IndexHead" style="rounded=0;whiteSpace=wrap;html=1;fillColor=#d5e8d4;strokeColor=#82b366;" vertex="1" parent="1">
          <mxGeometry x="-50" y="240" width="120" height="40" as="geometry" />
        </mxCell>
        <mxCell id="IMbzZPyRSBKScdet-RZA-21" value="" style="shape=table;html=1;whiteSpace=wrap;startSize=0;container=1;collapsible=0;childLayout=tableLayout;fillColor=#ffe6cc;strokeColor=#d79b00;" vertex="1" parent="1">
          <mxGeometry x="70" y="240" width="360" height="40" as="geometry" />
        </mxCell>
        <mxCell id="IMbzZPyRSBKScdet-RZA-22" value="" style="shape=partialRectangle;html=1;whiteSpace=wrap;collapsible=0;dropTarget=0;pointerEvents=0;fillColor=none;top=0;left=0;bottom=0;right=0;points=[[0,0.5],[1,0.5]];portConstraint=eastwest;" vertex="1" parent="IMbzZPyRSBKScdet-RZA-21">
          <mxGeometry width="360" height="40" as="geometry" />
        </mxCell>
        <mxCell id="IMbzZPyRSBKScdet-RZA-23" value="0" style="shape=partialRectangle;html=1;whiteSpace=wrap;connectable=0;fillColor=none;top=0;left=0;bottom=0;right=0;overflow=hidden;" vertex="1" parent="IMbzZPyRSBKScdet-RZA-22">
          <mxGeometry width="60" height="40" as="geometry" />
        </mxCell>
        <mxCell id="IMbzZPyRSBKScdet-RZA-24" value="1&lt;br&gt;value=1" style="shape=partialRectangle;html=1;whiteSpace=wrap;connectable=0;fillColor=none;top=0;left=0;bottom=0;right=0;overflow=hidden;" vertex="1" parent="IMbzZPyRSBKScdet-RZA-22">
          <mxGeometry x="60" width="60" height="40" as="geometry" />
        </mxCell>
        <mxCell id="IMbzZPyRSBKScdet-RZA-25" value="..." style="shape=partialRectangle;html=1;whiteSpace=wrap;connectable=0;fillColor=none;top=0;left=0;bottom=0;right=0;overflow=hidden;" vertex="1" parent="IMbzZPyRSBKScdet-RZA-22">
          <mxGeometry x="120" width="60" height="40" as="geometry" />
        </mxCell>
        <mxCell id="IMbzZPyRSBKScdet-RZA-26" value="4&lt;br&gt;value=2" style="shape=partialRectangle;html=1;whiteSpace=wrap;connectable=0;fillColor=none;top=0;left=0;bottom=0;right=0;overflow=hidden;" vertex="1" parent="IMbzZPyRSBKScdet-RZA-22">
          <mxGeometry x="180" width="60" height="40" as="geometry" />
        </mxCell>
        <mxCell id="IMbzZPyRSBKScdet-RZA-27" value="..." style="shape=partialRectangle;html=1;whiteSpace=wrap;connectable=0;fillColor=none;top=0;left=0;bottom=0;right=0;overflow=hidden;" vertex="1" parent="IMbzZPyRSBKScdet-RZA-22">
          <mxGeometry x="240" width="60" height="40" as="geometry" />
        </mxCell>
        <mxCell id="IMbzZPyRSBKScdet-RZA-28" value="9" style="shape=partialRectangle;html=1;whiteSpace=wrap;connectable=0;fillColor=none;top=0;left=0;bottom=0;right=0;overflow=hidden;" vertex="1" parent="IMbzZPyRSBKScdet-RZA-22">
          <mxGeometry x="300" width="60" height="40" as="geometry" />
        </mxCell>
        <mxCell id="IMbzZPyRSBKScdet-RZA-29" style="edgeStyle=orthogonalEdgeStyle;rounded=0;orthogonalLoop=1;jettySize=auto;html=1;exitX=0.5;exitY=0;exitDx=0;exitDy=0;entryX=0.244;entryY=0;entryDx=0;entryDy=0;entryPerimeter=0;startArrow=classic;startFill=1;endArrow=none;endFill=0;" edge="1" parent="1" source="IMbzZPyRSBKScdet-RZA-30" target="IMbzZPyRSBKScdet-RZA-22">
          <mxGeometry relative="1" as="geometry" />
        </mxCell>
        <mxCell id="IMbzZPyRSBKScdet-RZA-30" value="11&lt;br&gt;value=0" style="rounded=0;whiteSpace=wrap;html=1;fillColor=#dae8fc;strokeColor=#6c8ebf;" vertex="1" parent="1">
          <mxGeometry x="430" y="240" width="60" height="40" as="geometry" />
        </mxCell>
        <mxCell id="IMbzZPyRSBKScdet-RZA-31" value="" style="rounded=0;whiteSpace=wrap;html=1;fillColor=#dae8fc;strokeColor=#6c8ebf;" vertex="1" parent="1">
          <mxGeometry x="550" y="240" width="60" height="40" as="geometry" />
        </mxCell>
        <mxCell id="IMbzZPyRSBKScdet-RZA-35" style="edgeStyle=orthogonalEdgeStyle;rounded=0;orthogonalLoop=1;jettySize=auto;html=1;exitX=0.5;exitY=0;exitDx=0;exitDy=0;entryX=0.583;entryY=0;entryDx=0;entryDy=0;entryPerimeter=0;startArrow=classic;startFill=1;endArrow=none;endFill=0;" edge="1" parent="1" source="IMbzZPyRSBKScdet-RZA-32" target="IMbzZPyRSBKScdet-RZA-22">
          <mxGeometry relative="1" as="geometry">
            <Array as="points">
              <mxPoint x="520" y="200" />
              <mxPoint x="280" y="200" />
            </Array>
          </mxGeometry>
        </mxCell>
        <mxCell id="IMbzZPyRSBKScdet-RZA-32" value="34&lt;br&gt;value=0" style="rounded=0;whiteSpace=wrap;html=1;fillColor=#dae8fc;strokeColor=#6c8ebf;" vertex="1" parent="1">
          <mxGeometry x="490" y="240" width="60" height="40" as="geometry" />
        </mxCell>
        <mxCell id="IMbzZPyRSBKScdet-RZA-33" value="index=1" style="text;html=1;strokeColor=none;fillColor=none;align=center;verticalAlign=middle;whiteSpace=wrap;rounded=0;" vertex="1" parent="1">
          <mxGeometry x="440" y="320" width="40" height="20" as="geometry" />
        </mxCell>
        <mxCell id="IMbzZPyRSBKScdet-RZA-34" value="index=2" style="text;html=1;strokeColor=none;fillColor=none;align=center;verticalAlign=middle;whiteSpace=wrap;rounded=0;" vertex="1" parent="1">
          <mxGeometry x="500" y="320" width="40" height="20" as="geometry" />
        </mxCell>
      </root>
    </mxGraphModel>
  </diagram>
</mxfile>
